<mxfile host="65bd71144e">
    <diagram id="_EPxYn-PAymcD0dvTo8O" name="Page-1">
        <mxGraphModel dx="1100" dy="761" grid="1" gridSize="10" guides="1" tooltips="1" connect="1" arrows="1" fold="1" page="1" pageScale="1" pageWidth="827" pageHeight="1169" math="0" shadow="0">
            <root>
                <mxCell id="0"/>
                <mxCell id="1" parent="0"/>
                <mxCell id="2" value="&lt;font&gt;&lt;span class=&quot;char&quot;&gt;&lt;span class=&quot;vchar&quot; id=&quot;char-node&quot;&gt;«System&lt;/span&gt;&lt;/span&gt;&lt;span class=&quot;char&quot;&gt;&lt;span class=&quot;vchar&quot; id=&quot;char-node&quot;&gt;»&lt;br&gt;&lt;div&gt;&lt;b&gt;WaldorfConnect&lt;/b&gt;&lt;/div&gt;&lt;/span&gt;&lt;/span&gt;&lt;/font&gt;" style="shape=cube;whiteSpace=wrap;html=1;boundedLbl=1;backgroundOutline=1;darkOpacity=0.05;darkOpacity2=0.1;size=10;align=center;verticalAlign=top;fillColor=#FFFDFC;fontFamily=Verdana;" parent="1" vertex="1">
                    <mxGeometry x="190" y="190" width="1090" height="760" as="geometry"/>
                </mxCell>
                <mxCell id="175" value="&lt;font&gt;«Component»&lt;br&gt;&lt;b&gt;Portal&lt;/b&gt;&lt;br&gt;&lt;br&gt;portal.waldorfconnect.de&lt;br&gt;&lt;/font&gt;" style="html=1;dropTarget=0;verticalAlign=top;fillColor=#fff2cc;fontFamily=Verdana;fontSize=12;" vertex="1" parent="1">
                    <mxGeometry x="278" y="400" width="910" height="200" as="geometry"/>
                </mxCell>
                <mxCell id="176" value="" style="shape=component;jettyWidth=8;jettyHeight=4;fontFamily=Verdana;fontSize=12;" vertex="1" parent="175">
                    <mxGeometry x="1" width="20" height="20" relative="1" as="geometry">
                        <mxPoint x="-27" y="7" as="offset"/>
                    </mxGeometry>
                </mxCell>
                <mxCell id="4" value="&lt;font&gt;«Component»&lt;br&gt;&lt;b&gt;OpenLDAP&lt;/b&gt;&lt;br&gt;&lt;br&gt;localhost:389&lt;br&gt;(no external endpoints exposed)&lt;br&gt;&lt;/font&gt;" style="html=1;dropTarget=0;verticalAlign=top;fillColor=#fff2cc;fontFamily=Verdana;" parent="1" vertex="1">
                    <mxGeometry x="642" y="480" width="180" height="110" as="geometry"/>
                </mxCell>
                <mxCell id="5" value="" style="shape=component;jettyWidth=8;jettyHeight=4;fontFamily=Verdana;" parent="4" vertex="1">
                    <mxGeometry x="1" width="20" height="20" relative="1" as="geometry">
                        <mxPoint x="-27" y="7" as="offset"/>
                    </mxGeometry>
                </mxCell>
                <mxCell id="143" value="&lt;font&gt;«Component»&lt;br&gt;&lt;b&gt;Simple Account Manager&lt;br&gt;&lt;/b&gt;&lt;br&gt;portal.waldorfconnect.de/register&lt;br&gt;portal.waldorfconnect.de/profile&lt;br&gt;portal.waldorfconnect.de/admin&lt;br&gt;...&lt;br&gt;&lt;/font&gt;" style="html=1;dropTarget=0;verticalAlign=top;fillColor=#fff2cc;fontFamily=Verdana;" parent="1" vertex="1">
                    <mxGeometry x="323" y="480" width="180" height="110" as="geometry"/>
                </mxCell>
                <mxCell id="144" value="" style="shape=component;jettyWidth=8;jettyHeight=4;fontFamily=Verdana;" parent="143" vertex="1">
                    <mxGeometry x="1" width="20" height="20" relative="1" as="geometry">
                        <mxPoint x="-27" y="7" as="offset"/>
                    </mxGeometry>
                </mxCell>
                <mxCell id="147" value="&lt;font&gt;«Component»&lt;br&gt;&lt;b&gt;LDAP Account Manager&lt;/b&gt;&lt;br&gt;&lt;br&gt;portal.waldorfconnect.de/lam&lt;br&gt;&lt;/font&gt;" style="html=1;dropTarget=0;verticalAlign=top;fillColor=#fff2cc;fontFamily=Verdana;" parent="1" vertex="1">
                    <mxGeometry x="959" y="480" width="180" height="110" as="geometry"/>
                </mxCell>
                <mxCell id="148" value="" style="shape=component;jettyWidth=8;jettyHeight=4;fontFamily=Verdana;" parent="147" vertex="1">
                    <mxGeometry x="1" width="20" height="20" relative="1" as="geometry">
                        <mxPoint x="-27" y="7" as="offset"/>
                    </mxGeometry>
                </mxCell>
                <mxCell id="149" value="&lt;font&gt;«Component»&lt;br&gt;&lt;b&gt;Homepage&lt;/b&gt;&lt;br&gt;&lt;br&gt;waldorfconnect.de&lt;br&gt;&lt;/font&gt;" style="html=1;dropTarget=0;verticalAlign=top;fillColor=#fff2cc;fontFamily=Verdana;" parent="1" vertex="1">
                    <mxGeometry x="643" y="250" width="180" height="80" as="geometry"/>
                </mxCell>
                <mxCell id="150" value="" style="shape=component;jettyWidth=8;jettyHeight=4;fontFamily=Verdana;" parent="149" vertex="1">
                    <mxGeometry x="1" width="20" height="20" relative="1" as="geometry">
                        <mxPoint x="-27" y="7" as="offset"/>
                    </mxGeometry>
                </mxCell>
                <mxCell id="156" value="" style="endArrow=open;html=1;fillColor=#000000;fontFamily=Verdana;fontSize=12;endFill=0;dashed=1;" parent="1" source="143" target="4" edge="1">
                    <mxGeometry relative="1" as="geometry">
                        <mxPoint x="508" y="530" as="sourcePoint"/>
                        <mxPoint x="607.9999999999999" y="530" as="targetPoint"/>
                    </mxGeometry>
                </mxCell>
                <mxCell id="157" value="&lt;span style=&quot;background-color: rgb(248, 249, 250); font-size: 12px;&quot;&gt;«use»&lt;br&gt;teilweise verwalten&lt;br&gt;&lt;/span&gt;" style="edgeLabel;resizable=0;html=1;align=center;verticalAlign=middle;fontFamily=Verdana;" parent="156" connectable="0" vertex="1">
                    <mxGeometry relative="1" as="geometry"/>
                </mxCell>
                <mxCell id="158" value="" style="endArrow=open;html=1;fillColor=#000000;fontFamily=Verdana;fontSize=12;endFill=0;dashed=1;" parent="1" target="4" edge="1" source="147">
                    <mxGeometry relative="1" as="geometry">
                        <mxPoint x="858" y="540" as="sourcePoint"/>
                        <mxPoint x="957.9999999999999" y="540" as="targetPoint"/>
                    </mxGeometry>
                </mxCell>
                <mxCell id="159" value="&lt;span style=&quot;background-color: rgb(248, 249, 250); font-size: 12px;&quot;&gt;«use»&lt;br&gt;komplett verwalten&lt;br&gt;&lt;/span&gt;" style="edgeLabel;resizable=0;html=1;align=center;verticalAlign=middle;fontFamily=Verdana;" parent="158" connectable="0" vertex="1">
                    <mxGeometry relative="1" as="geometry"/>
                </mxCell>
                <mxCell id="160" value="&lt;font&gt;«Component»&lt;br&gt;&lt;b&gt;NextCloud&lt;/b&gt;&lt;br&gt;&lt;br&gt;cloud.waldorfconnect.de&lt;br&gt;&lt;/font&gt;" style="html=1;dropTarget=0;verticalAlign=top;fillColor=#fff2cc;fontFamily=Verdana;" vertex="1" parent="1">
                    <mxGeometry x="488" y="650" width="180" height="110" as="geometry"/>
                </mxCell>
                <mxCell id="161" value="" style="shape=component;jettyWidth=8;jettyHeight=4;fontFamily=Verdana;" vertex="1" parent="160">
                    <mxGeometry x="1" width="20" height="20" relative="1" as="geometry">
                        <mxPoint x="-27" y="7" as="offset"/>
                    </mxGeometry>
                </mxCell>
                <mxCell id="162" value="&lt;font&gt;«Component»&lt;br&gt;&lt;b&gt;Zulip&lt;/b&gt;&lt;br&gt;&lt;br&gt;chat.waldorfconnect.de&lt;br&gt;&lt;/font&gt;" style="html=1;dropTarget=0;verticalAlign=top;fillColor=#fff2cc;fontFamily=Verdana;" vertex="1" parent="1">
                    <mxGeometry x="798" y="650" width="180" height="110" as="geometry"/>
                </mxCell>
                <mxCell id="163" value="" style="shape=component;jettyWidth=8;jettyHeight=4;fontFamily=Verdana;" vertex="1" parent="162">
                    <mxGeometry x="1" width="20" height="20" relative="1" as="geometry">
                        <mxPoint x="-27" y="7" as="offset"/>
                    </mxGeometry>
                </mxCell>
                <mxCell id="164" value="&lt;font&gt;«Component»&lt;br&gt;&lt;b&gt;Jitsi&lt;/b&gt;&lt;br&gt;&lt;br&gt;meet.waldorfconnect.de&lt;br&gt;&lt;/font&gt;" style="html=1;dropTarget=0;verticalAlign=top;fillColor=#fff2cc;fontFamily=Verdana;" vertex="1" parent="1">
                    <mxGeometry x="798" y="820" width="180" height="110" as="geometry"/>
                </mxCell>
                <mxCell id="165" value="" style="shape=component;jettyWidth=8;jettyHeight=4;fontFamily=Verdana;" vertex="1" parent="164">
                    <mxGeometry x="1" width="20" height="20" relative="1" as="geometry">
                        <mxPoint x="-27" y="7" as="offset"/>
                    </mxGeometry>
                </mxCell>
                <mxCell id="166" value="" style="endArrow=open;html=1;fillColor=#000000;fontFamily=Verdana;fontSize=12;endFill=0;dashed=1;" edge="1" parent="1" source="162" target="4">
                    <mxGeometry relative="1" as="geometry">
                        <mxPoint x="768" y="614.5" as="sourcePoint"/>
                        <mxPoint x="867.9999999999999" y="614.5" as="targetPoint"/>
                    </mxGeometry>
                </mxCell>
                <mxCell id="167" value="&lt;span style=&quot;background-color: rgb(248, 249, 250); font-size: 12px;&quot;&gt;&lt;span style=&quot;&quot;&gt;«use»&lt;/span&gt;&lt;br&gt;&lt;font style=&quot;font-size: 12px;&quot;&gt;&amp;nbsp; &amp;nbsp; &amp;nbsp;Benutzer und Rechte abfragen&lt;/font&gt;&lt;br&gt;&lt;/span&gt;" style="edgeLabel;resizable=0;html=1;align=center;verticalAlign=middle;fontFamily=Verdana;" connectable="0" vertex="1" parent="166">
                    <mxGeometry relative="1" as="geometry"/>
                </mxCell>
                <mxCell id="170" value="" style="endArrow=open;html=1;fillColor=#000000;fontFamily=Verdana;fontSize=12;endFill=0;dashed=1;" edge="1" parent="1" source="160" target="4">
                    <mxGeometry relative="1" as="geometry">
                        <mxPoint x="528" y="610" as="sourcePoint"/>
                        <mxPoint x="627.9999999999999" y="610" as="targetPoint"/>
                    </mxGeometry>
                </mxCell>
                <mxCell id="171" value="&lt;font style=&quot;font-size: 12px;&quot;&gt;&lt;span style=&quot;background-color: rgb(248, 249, 250);&quot;&gt;«use»&lt;br&gt;&lt;/span&gt;&lt;span style=&quot;background-color: rgb(248, 249, 250);&quot;&gt;Benutzer und Rechte abfragen&amp;nbsp; &amp;nbsp; &amp;nbsp;&lt;/span&gt;&lt;/font&gt;&lt;span style=&quot;font-size: 12px; background-color: rgb(248, 249, 250);&quot;&gt;&lt;br&gt;&lt;/span&gt;" style="edgeLabel;resizable=0;html=1;align=center;verticalAlign=middle;fontFamily=Verdana;" connectable="0" vertex="1" parent="170">
                    <mxGeometry relative="1" as="geometry"/>
                </mxCell>
                <mxCell id="172" value="" style="endArrow=open;html=1;fillColor=#000000;fontFamily=Verdana;fontSize=12;endFill=0;dashed=1;" edge="1" parent="1" source="162" target="164">
                    <mxGeometry relative="1" as="geometry">
                        <mxPoint x="848" y="770" as="sourcePoint"/>
                        <mxPoint x="947.9999999999999" y="770" as="targetPoint"/>
                    </mxGeometry>
                </mxCell>
                <mxCell id="173" value="&lt;span style=&quot;background-color: rgb(248, 249, 250); font-size: 12px;&quot;&gt;«use»&lt;br&gt;für Video/Audio-Calls verwenden&lt;br&gt;&lt;/span&gt;" style="edgeLabel;resizable=0;html=1;align=center;verticalAlign=middle;fontFamily=Verdana;" connectable="0" vertex="1" parent="172">
                    <mxGeometry relative="1" as="geometry"/>
                </mxCell>
                <mxCell id="179" value="" style="endArrow=open;html=1;fillColor=#000000;fontFamily=Verdana;fontSize=12;endFill=0;dashed=1;" edge="1" parent="1" source="149" target="175">
                    <mxGeometry relative="1" as="geometry">
                        <mxPoint x="670" y="360" as="sourcePoint"/>
                        <mxPoint x="834.9999999999999" y="360.30999999999995" as="targetPoint"/>
                    </mxGeometry>
                </mxCell>
                <mxCell id="180" value="&lt;span style=&quot;background-color: rgb(251, 251, 251);&quot;&gt;«has&amp;nbsp;&lt;/span&gt;&lt;span style=&quot;font-size: 12px; background-color: rgb(248, 249, 250);&quot;&gt;link to&lt;/span&gt;&lt;span style=&quot;background-color: rgb(251, 251, 251);&quot;&gt;»&lt;/span&gt;" style="edgeLabel;resizable=0;html=1;align=center;verticalAlign=middle;fontFamily=Verdana;fontSize=12;" connectable="0" vertex="1" parent="179">
                    <mxGeometry relative="1" as="geometry">
                        <mxPoint x="-2.76" y="0.8399999999999995" as="offset"/>
                    </mxGeometry>
                </mxCell>
                <mxCell id="181" value="" style="endArrow=open;html=1;fillColor=#000000;fontFamily=Verdana;fontSize=12;endFill=0;dashed=1;edgeStyle=orthogonalEdgeStyle;" edge="1" parent="1" source="149" target="160">
                    <mxGeometry relative="1" as="geometry">
                        <mxPoint x="560" y="300" as="sourcePoint"/>
                        <mxPoint x="560" y="370" as="targetPoint"/>
                        <Array as="points">
                            <mxPoint x="240" y="290"/>
                            <mxPoint x="240" y="705"/>
                        </Array>
                    </mxGeometry>
                </mxCell>
                <mxCell id="182" value="&lt;span style=&quot;background-color: rgb(251, 251, 251);&quot;&gt;«has&amp;nbsp;&lt;/span&gt;&lt;span style=&quot;font-size: 12px; background-color: rgb(248, 249, 250);&quot;&gt;link to&lt;/span&gt;&lt;span style=&quot;background-color: rgb(251, 251, 251);&quot;&gt;»&lt;/span&gt;" style="edgeLabel;resizable=0;html=1;align=center;verticalAlign=middle;fontFamily=Verdana;fontSize=12;" connectable="0" vertex="1" parent="181">
                    <mxGeometry relative="1" as="geometry">
                        <mxPoint x="-2.76" y="0.8399999999999995" as="offset"/>
                    </mxGeometry>
                </mxCell>
                <mxCell id="183" value="" style="endArrow=open;html=1;fillColor=#000000;fontFamily=Verdana;fontSize=12;endFill=0;dashed=1;edgeStyle=orthogonalEdgeStyle;" edge="1" parent="1" source="149" target="162">
                    <mxGeometry relative="1" as="geometry">
                        <mxPoint x="743" y="340" as="sourcePoint"/>
                        <mxPoint x="743" y="410" as="targetPoint"/>
                        <Array as="points">
                            <mxPoint x="1230" y="290"/>
                            <mxPoint x="1230" y="705"/>
                        </Array>
                    </mxGeometry>
                </mxCell>
                <mxCell id="184" value="&lt;span style=&quot;background-color: rgb(251, 251, 251);&quot;&gt;«has&amp;nbsp;&lt;/span&gt;&lt;span style=&quot;font-size: 12px; background-color: rgb(248, 249, 250);&quot;&gt;link to&lt;/span&gt;&lt;span style=&quot;background-color: rgb(251, 251, 251);&quot;&gt;»&lt;/span&gt;" style="edgeLabel;resizable=0;html=1;align=center;verticalAlign=middle;fontFamily=Verdana;fontSize=12;" connectable="0" vertex="1" parent="183">
                    <mxGeometry relative="1" as="geometry">
                        <mxPoint x="-2.76" y="0.8399999999999995" as="offset"/>
                    </mxGeometry>
                </mxCell>
            </root>
        </mxGraphModel>
    </diagram>
</mxfile>